<?xml version="1.0" encoding="utf-8"?>
<svg viewBox="368.663 359.284 42.843 41.803" width="42.843" height="41.803" xmlns="http://www.w3.org/2000/svg">
  <path d="M 408.412 380.11 L 401.639 384.018 L 401.639 391.808 C 401.637 392.895 401.35 393.961 400.807 394.902 C 400.263 395.842 399.482 396.623 398.542 397.166 L 393.182 400.261 C 392.24 400.802 391.172 401.087 390.086 401.087 C 388.999 401.087 387.932 400.802 386.99 400.261 L 381.627 397.166 C 380.687 396.622 379.906 395.841 379.363 394.901 C 378.819 393.961 378.532 392.894 378.53 391.808 L 378.53 384.018 L 371.76 380.11 C 370.82 379.566 370.039 378.785 369.496 377.845 C 368.952 376.904 368.665 375.838 368.663 374.752 L 368.663 368.565 C 368.665 367.479 368.952 366.412 369.495 365.471 C 370.039 364.531 370.82 363.749 371.76 363.205 L 377.123 360.113 C 378.064 359.57 379.132 359.284 380.219 359.284 C 381.305 359.284 382.373 359.57 383.315 360.113 L 390.067 364.008 L 390.085 363.996 L 390.105 364.008 L 396.857 360.113 C 397.798 359.57 398.866 359.284 399.953 359.284 C 401.04 359.284 402.107 359.57 403.049 360.113 L 408.412 363.205 C 409.352 363.749 410.132 364.531 410.675 365.472 C 411.218 366.412 411.505 367.479 411.506 368.565 L 411.506 374.752 C 411.504 375.838 411.218 376.904 410.675 377.844 C 410.132 378.785 409.351 379.566 408.412 380.11 Z M 381.905 391.808 C 381.906 392.303 382.037 392.788 382.284 393.216 C 382.531 393.644 382.887 393.999 383.315 394.246 L 388.675 397.341 C 389.104 397.586 389.59 397.716 390.085 397.716 C 390.579 397.716 391.065 397.586 391.494 397.341 L 396.857 394.246 C 397.285 393.999 397.64 393.644 397.888 393.216 C 398.135 392.788 398.266 392.303 398.267 391.808 L 398.267 385.94 L 393.636 388.618 C 392.555 389.24 391.33 389.567 390.083 389.567 C 388.836 389.567 387.611 389.24 386.53 388.618 L 381.905 385.94 L 381.905 391.808 Z M 381.627 363.033 C 381.198 362.786 380.712 362.656 380.217 362.656 C 379.723 362.656 379.237 362.786 378.808 363.033 L 373.447 366.135 C 373.02 366.383 372.665 366.739 372.417 367.167 C 372.17 367.596 372.039 368.081 372.038 368.576 L 372.038 374.752 C 372.039 375.246 372.169 375.731 372.417 376.159 C 372.664 376.587 373.02 376.942 373.447 377.19 L 378.53 380.122 L 378.53 374.762 C 378.532 373.516 378.862 372.292 379.485 371.213 C 380.109 370.134 381.005 369.237 382.084 368.613 L 386.692 365.953 L 381.627 363.033 Z M 390.085 367.888 L 383.769 371.531 C 383.202 371.859 382.732 372.33 382.404 372.897 C 382.076 373.464 381.903 374.107 381.902 374.762 L 381.902 382.05 L 388.218 385.693 C 388.785 386.019 389.429 386.191 390.083 386.191 C 390.738 386.191 391.381 386.019 391.949 385.693 L 398.264 382.05 L 398.264 374.765 C 398.263 374.11 398.09 373.468 397.762 372.901 C 397.434 372.334 396.964 371.864 396.397 371.536 L 390.085 367.888 Z M 408.131 368.565 C 408.13 368.071 408 367.586 407.753 367.158 C 407.506 366.729 407.151 366.373 406.724 366.125 L 401.361 363.033 C 400.932 362.786 400.446 362.656 399.952 362.656 C 399.457 362.656 398.971 362.786 398.542 363.033 L 393.49 365.953 L 398.097 368.613 C 399.176 369.238 400.071 370.134 400.695 371.213 C 401.318 372.292 401.647 373.516 401.649 374.762 L 401.649 380.122 L 406.734 377.19 C 407.162 376.942 407.517 376.587 407.764 376.159 C 408.011 375.731 408.141 375.246 408.141 374.752 L 408.131 368.565 Z" fill="#221AFB"/>
</svg>