<svg xmlns="http://www.w3.org/2000/svg" viewBox="200.513 105.396 132.845 146" width="132.845" height="146">
  <path d="M 269.01 110.953 C 275.326 110.058 288.466 104.664 294.503 105.84 C 299.069 106.735 291.662 127.751 280.906 137.108 C 322.329 154.366 383.259 259.83 261.603 250.856 C 173.582 244.362 224.061 155.312 259.903 137.926 C 247.854 130.077 240.168 112.129 244.683 107.246 C 250.163 101.186 259.954 112.052 269.01 110.953 Z" style="fill: rgb(72, 87, 252);" transform="matrix(-1, 0, 0, -1, 545.986145, 356.793091)"/>
  <path d="M 266.569 130.546 C 265.926 130.112 265.192 129.832 264.425 129.727 C 263.657 129.623 262.877 129.697 262.142 129.944 C 261.408 130.191 260.739 130.604 260.187 131.151 C 259.635 131.699 259.215 132.366 258.959 133.103 L 258.655 134.125 C 257.185 139.753 257.885 145.734 260.615 150.863 C 263.345 155.991 267.902 159.886 273.367 161.764 L 275.016 162.249 C 277.797 163.147 280.727 163.478 283.636 163.224 C 286.545 162.969 289.375 162.134 291.961 160.767 C 297.21 157.947 301.14 153.15 302.893 147.421 L 303.046 146.832 C 303.171 146.15 303.156 145.449 303.004 144.772 C 302.851 144.095 302.563 143.456 302.158 142.895 C 301.693 142.262 301.09 141.746 300.394 141.386 C 299.699 141.027 298.931 140.835 298.15 140.824 L 290.185 140.824 C 284.016 140.814 278.008 138.846 273.012 135.199 L 266.569 130.546 Z" style="fill: rgb(255, 255, 255);" transform="matrix(-1, 0, 0, -1, 561.032593, 292.98822)"/>
  <g transform="matrix(-1, 0, 0, -1, 113.588898, 190.34108)">
    <path fill-rule="evenodd" clip-rule="evenodd" d="M -96.571 -16.13 C -91.232 -16.171 -86.914 -11.878 -86.924 -6.536 C -86.936 -1.198 -91.275 3.165 -96.614 3.206 L -120.028 3.368 L -120.191 26.809 C -120.236 32.103 -124.597 36.392 -129.929 36.386 C -135.267 36.379 -139.554 32.08 -139.51 26.782 L -139.349 3.505 L -162.669 3.668 C -168.007 3.709 -172.326 -0.585 -172.316 -5.925 C -172.304 -11.266 -167.964 -15.627 -162.625 -15.666 L -139.212 -15.831 L -139.047 -39.272 C -139.003 -44.566 -134.644 -48.854 -129.31 -48.848 C -123.974 -48.842 -119.686 -44.541 -119.731 -39.244 L -119.891 -15.967 L -96.571 -16.13 Z" style="fill: rgb(246, 194, 82);"/>
  </g>
</svg>